<?xml version="1.0" encoding="utf-8"?>
<!-- Generator: Adobe Illustrator 24.1.1, SVG Export Plug-In . SVG Version: 6.00 Build 0)  -->
<svg version="1.1" id="Слой_2" xmlns="http://www.w3.org/2000/svg" xmlns:xlink="http://www.w3.org/1999/xlink" x="0px" y="0px"
	 viewBox="0 0 7376 2067" style="enable-background:new 0 0 7376 2067;" xml:space="preserve">
<style type="text/css">
	.st0{fill:#FFFFFF;}
</style>
<g>
	<path d="M7375.33,1584.5l-30.57-345.29c-0.06-0.68-0.13-1.37-0.19-2.05c-7.61-75.69-37.56-143.38-87.18-197.83
		c6.66-5.87,12.9-12.27,18.65-19.18c29.53-35.51,43.64-81.36,39.17-127.34l-16.88-173.55c-7.63-87.47-45.17-164.94-108.63-224.13
		c-65.2-60.79-146.31-92.93-234.56-92.93c-11.98,0-24.11,1.01-38.47,3.23L5710.99,509c-1.03,0.09-2.06,0.19-3.08,0.29
		c-57.19,5.95-110.38,25.17-157.12,56.42c-40.85-20.8-85.72-33.52-133.18-37.5c-1.88-0.16-3.77-0.28-5.65-0.38l-1391.2-70.8
		c-31.55-1.61-61.53,5.39-87.74,18.86c-4.04-4.14-8.19-8.21-12.47-12.2c-0.06-0.05-0.11-0.1-0.17-0.16
		c-64.44-59.98-145.51-91.69-234.45-91.69h-9.04c-5.02,0-10.03,0.22-15.02,0.65L2472.07,476.23l0.03-0.69
		c0.09-2.26,0.13-4.52,0.13-6.78v-12.49c0-107.15-39.79-203.94-115.09-280.01c-74.42-76.66-169.97-118.1-276.54-119.96L460.17-0.28
		c-2.01-0.07-4.02-0.11-6.04-0.11h-11.35c-0.01,0,0,0,0,0c-107.59,0-205.08,40.61-281.85,117.37
		C85.2,192.66,44.23,288.14,42.35,393.24L0.53,1547.75c-0.08,2.09-0.11,4.17-0.11,6.26v13.56c0,106.29,39.47,202.62,114.15,278.56
		c0.35,0.36,0.71,0.72,1.06,1.07c72.65,72.6,167.02,114.25,272.9,120.46c1.5,0.09,3,0.16,4.51,0.2l1619.86,52.6
		c1.87,0.06,3.74,0.09,5.61,0.09h10.47c1.37,0.01,2.73,0.02,4.09,0.02c75.47,0,145.79-19.71,207.25-57.65
		c30.24,51.87,86.42,85.96,149.29,85.96c4.9,0,9.85-0.21,14.82-0.63l692.77-58.79c30.23-2.57,58.97-13.01,83.52-29.92
		c28.19,13.83,59.87,19.84,91.66,16.98l527.43-47.41c6.07,10.55,13.24,20.52,21.52,29.69c30.77,34.06,73.81,54.5,119.65,56.81
		l695.05,35.05c45.83,2.31,90.69-13.68,124.72-44.45c34.03-30.77,54.44-73.81,56.74-119.64l17.36-346.52l521.67,28.04
		c3.09,0.17,6.19,0.25,9.29,0.25h17.01c24.89,0,49.19-2.68,72.7-7.97c-0.15,6.85,0.12,13.73,0.79,20.62l16.76,170.2
		c6.69,87.58,44.5,165.22,109.48,224.76c64.32,59.62,145.15,91.11,233.8,91.11h15.84c4.94,0,9.87-0.21,14.79-0.63l1213.49-104.15
		c1-0.09,1.99-0.18,2.99-0.28c85.13-8.8,161.48-47.08,220.81-110.7c0.06-0.06,0.11-0.12,0.17-0.18
		c59.9-64.42,91.56-145.86,91.56-235.52v-15.87C7376,1594.66,7375.78,1589.57,7375.33,1584.5z M1345.46,1190.78
		c-19.74-0.7-39.24,1.99-57.73,7.77l13.11-369.82c18.18,7.31,37.92,11.64,58.62,12.35l769.23,26.34l30.56,352.19L1345.46,1190.78z"
		/>
	<path class="st0" d="M2299.26,456.27v4.52v7.97l-9.07,231.12l-961.22-31.67l2.24-116.6l-161.02-4.77l-32.81,925.54l163.26,7.05
		l1.1-56.12c0.65-32.81,28.01-58.75,60.81-57.63l903.86,30.81l-6.8,231.79c-3.03,60.31-26.8,112.69-71.31,157.16
		c-43.78,42.23-96.6,62.93-158.46,62.17h-2.28h-9.07L398.66,1795c-64.17-3.76-117.74-27.15-160.76-70.14
		c-43.02-43.75-64.51-96.15-64.51-157.29v-4.52v-9.04l41.88-1156.28c0.76-61.07,23.39-113.89,67.93-158.39
		c44.51-44.51,97.7-66.76,159.59-66.76h2.28h9.07l1622.13,56.64c61.86,0.76,114.3,23.49,157.35,68.12
		C2277.36,341.24,2299.26,394.22,2299.26,456.27z"/>
	<path class="st0" d="M3949.71,1741.99l-663.78,57.48c-30.57,2.65-57.52-19.95-60.24-50.52l-41.48-466.59l-111.36,12.96
		l39.24,460.47c2.7,31.65-20.75,59.5-52.4,62.24l-669.88,57.89l-90.56-1043.6v-9.07c0-46.02,15.08-85.25,45.26-117.71
		c30.19-32.43,67.55-50.54,112.08-54.34l1220.29-106.4h9.04c45.26,0,84.14,15.11,116.6,45.33c33.19,30.98,52.06,68.34,56.61,112.15
		L3949.71,1741.99z M3170.62,1076.84l-19.72-196.8l-113.63,10.68l19.72,195.66L3170.62,1076.84z"/>
	<path class="st0" d="M5568.45,867.75v2.28v4.52v9.04l-19.25,346.81c-3.79,45.96-21.53,84.74-53.2,116.35
		c-32.46,32.43-70.2,48.65-113.19,48.65h-2.28h-4.52h-10.21l-695.01-37.36l-22.44,447.93c-1.99,39.74-35.83,70.35-75.57,68.34
		l-595.58-30.04c-15.18-0.77-26.86-13.7-26.08-28.88l60.86-1185.62l1391.2,70.8c45.26,3.79,83.76,21.49,115.47,53.1
		C5551.83,786.8,5568.45,824.83,5568.45,867.75z M4796.95,972.6l-105.54-7.02l-9.55,169.87l105.54,6.13L4796.95,972.6z"/>
	<path class="st0" d="M7203.04,1615.62c0,46.05-15.11,85.31-45.26,117.74c-30.98,33.22-68.34,52.09-112.08,56.61l-1213.49,104.15
		h-15.84c-45.3,0-84.17-15.14-116.6-45.36c-33.19-30.25-51.3-67.67-54.34-112.31l-18.17-177.73c-3.8-37.21,23.4-70.41,60.64-73.99
		l632.93-60.82c29.87-2.87,56.4,19.06,59.19,48.95l5.79,61.95l112.5-10.91l-18.59-209.69l-692.77,59.99
		c-3.03,0.76-5.66,1.3-7.93,1.68s-4.52,0.57-6.8,0.57c-44.54,0-83.42-15.46-116.6-46.4c-33.19-30.91-52.06-68.65-56.58-113.22
		l-30.57-345.29v-15.87c0-46.02,15.08-85.28,45.3-117.74c30.91-33.19,68.28-52.06,112.05-56.61l1212.36-104.15
		c7.52-1.33,13.18-2.02,16.97-2.02c44.51,0,83.38,15.49,116.6,46.46c32.43,30.25,50.54,68.05,54.34,113.38l15.87,180.65
		c2.84,32.32-21.18,60.76-53.51,63.38l-591.51,47.91c-23.19,1.88-43.64-15.1-46.05-38.25l-4.48-43.02l-113.63,9.8l17.7,193.51
		l634.1-51.9h14.73c45.26,0,84.14,15.11,116.6,45.3c33.19,29.46,52.03,66.82,56.58,112.08l30.57,345.29V1615.62z"/>
</g>
</svg>
